# xmcd CD database file
#
# Track frame offsets:
#	150
#	11465
#	24187
#	35665
#	42627
#	56595
#	71182
#	83995
#	93587
#	106905
#	120097
#	132267
#	142702
#	155505
#	170252
#	180837
#	194852
#	206885
#	218865
#	231655
#	242415
#
# Disc length: 3426 seconds
#
# Revision: 0
# Processed by: cddbd v1.5.1PL0 Copyright (c) Steve Scherf et al.
# Submitted via: CDex 1.60beta1
#
DISCID=240d6015
DTITLE=Argueso and His Orchestra - Latin American Dance Party
DYEAR=0
DGENRE=Jazz
TTITLE0=Rico-Cha
TTITLE1=Paqueton
TTITLE2=Olé Guapa
TTITLE3=Cayetano Baila
TTITLE4=Suspense
TTITLE5=Un Sueño
TTITLE6=Parace Que Va A Llore
TTITLE7=Gordita
TTITLE8=Violetera
TTITLE9=Guapita
TTITLE10=A La Vuelta Mundo Mambo
TTITLE11=Noche De Estrellas
TTITLE12=Chiqui Cha
TTITLE13=Don José
TTITLE14=Southern Comfort
TTITLE15=Cha Cha #4
TTITLE16=A Media Luz
TTITLE17=Derecho Viejo
TTITLE18=Bass Fiddle Mambo
TTITLE19=Nengue
TTITLE20=Inspiration
EXTD=YEAR: 0
EXTT0=
EXTT1=
EXTT2=
EXTT3=
EXTT4=
EXTT5=
EXTT6=
EXTT7=
EXTT8=
EXTT9=
EXTT10=
EXTT11=
EXTT12=
EXTT13=
EXTT14=
EXTT15=
EXTT16=
EXTT17=
EXTT18=
EXTT19=
EXTT20=
PLAYORDER=
